<svg width="512" height="512" viewBox="0 0 512 512" fill="none" xmlns="http://www.w3.org/2000/svg">
  <rect width="512" height="512" rx="256" fill="#F0F7FF"/>
  <path d="M170.667 170.667H341.333C354.745 170.667 365.333 181.255 365.333 194.667V317.333C365.333 330.745 354.745 341.333 341.333 341.333H170.667C157.255 341.333 146.667 330.745 146.667 317.333V194.667C146.667 181.255 157.255 170.667 170.667 170.667Z" stroke="#3B82F6" stroke-width="17.0667" stroke-linecap="round" stroke-linejoin="round"/>
  <path d="M256 256C275.673 256 291.556 240.117 291.556 220.444C291.556 200.772 275.673 184.889 256 184.889C236.327 184.889 220.444 200.772 220.444 220.444C220.444 240.117 236.327 256 256 256Z" fill="#3B82F6"/>
  <path d="M196.267 327.111C196.267 295.566 222.6 269.333 254.933 269.333H256C288.567 269.333 314.667 295.522 314.667 327.111" stroke="#3B82F6" stroke-width="17.0667" stroke-linecap="round" stroke-linejoin="round"/>
  <path d="M256 106.667V138.667" stroke="#3B82F6" stroke-width="17.0667" stroke-linecap="round" stroke-linejoin="round"/>
  <path d="M256 373.333V405.333" stroke="#3B82F6" stroke-width="17.0667" stroke-linecap="round" stroke-linejoin="round"/>
  <path d="M106.667 256H138.667" stroke="#3B82F6" stroke-width="17.0667" stroke-linecap="round" stroke-linejoin="round"/>
  <path d="M373.333 256H405.333" stroke="#3B82F6" stroke-width="17.0667" stroke-linecap="round" stroke-linejoin="round"/>
</svg> 